<svg width="653" height="131" viewBox="0 0 653 131" fill="none" xmlns="http://www.w3.org/2000/svg">
<rect width="130" height="130" fill="#71FBCE"/>
<rect x="21" y="25.5" width="89" height="28" fill="white"/>
<path d="M33.5 84C24 96.5 21.5 116.5 21.5 130H52C52 120 52.3807 111.25 58.1904 104.589C64.0001 97.9282 71.5606 95.7321 83.8167 95.7321H110V67.5H71.5606C58.1904 67.5 43 71.5 33.5 84Z" fill="white"/>
<path d="M629.476 107.3C624.676 107.3 620.442 106.133 616.776 103.8C613.109 101.467 610.276 98.1667 608.276 93.9C606.276 89.6334 605.276 84.6333 605.276 78.9C605.276 73.2333 606.276 68.2667 608.276 64C610.276 59.7333 613.076 56.4667 616.676 54.2C620.342 51.8667 624.576 50.7 629.376 50.7C634.109 50.7 638.209 51.8333 641.676 54.1C645.209 56.3 647.909 59.4 649.776 63.4C651.642 67.4 652.576 71.9667 652.576 77.1V80.8H613.676V83.4C613.676 88.4 615.109 92.4667 617.976 95.6C620.909 98.7333 624.876 100.3 629.876 100.3C633.342 100.3 636.376 99.4667 638.976 97.8C641.642 96.1334 643.676 93.7667 645.076 90.7L650.776 94.8C649.042 98.6 646.309 101.633 642.576 103.9C638.842 106.167 634.476 107.3 629.476 107.3ZM613.676 74.8H643.976V73.8C643.976 68.8667 642.609 64.9 639.876 61.9C637.209 58.9 633.709 57.4 629.376 57.4C624.776 57.4 621.009 58.9667 618.076 62.1C615.142 65.2333 613.676 69.2667 613.676 74.2V74.8Z" fill="white"/>
<path d="M548.436 127V51.9H556.436V60.6H556.836C559.636 53.9333 564.969 50.6 572.836 50.6C577.236 50.6 581.069 51.7666 584.336 54.1C587.669 56.3666 590.236 59.6333 592.036 63.9C593.836 68.1666 594.736 73.1666 594.736 78.9C594.736 84.6333 593.836 89.6666 592.036 94C590.236 98.2666 587.669 101.567 584.336 103.9C581.069 106.167 577.236 107.3 572.836 107.3C569.036 107.3 565.803 106.467 563.136 104.8C560.536 103.133 558.436 100.633 556.836 97.3H556.436V127H548.436ZM570.636 100.1C575.369 100.1 579.136 98.6 581.936 95.6C584.736 92.5333 586.136 88.4666 586.136 83.4V74.4C586.136 69.4 584.736 65.4 581.936 62.4C579.136 59.3333 575.369 57.8 570.636 57.8C566.703 57.8 563.336 58.8 560.536 60.8C557.803 62.8 556.436 65.3666 556.436 68.5V88.8C556.436 92.2666 557.769 95.0333 560.436 97.1C563.169 99.1 566.569 100.1 570.636 100.1Z" fill="white"/>
<path d="M496.195 127V120H504.795L508.995 108L488.695 51.9H496.795L510.095 89.5L512.495 97.8H513.095L515.795 89.5L529.195 51.9H537.195L512.895 118.9C512.028 121.1 511.128 122.767 510.195 123.9C509.328 125.033 508.161 125.833 506.695 126.3C505.295 126.767 503.328 127 500.795 127H496.195Z" fill="white"/>
<path d="M437.303 106V28.3H445.303V60.6H445.703C448.57 54 453.703 50.7 461.103 50.7C466.703 50.7 471.103 52.5 474.303 56.1C477.57 59.7 479.203 64.7333 479.203 71.2V106H471.203V72.8C471.203 67.8667 470.136 64.1667 468.003 61.7C465.936 59.1667 462.87 57.9 458.803 57.9C455.07 57.9 451.87 58.8333 449.203 60.7C446.603 62.5 445.303 65.1 445.303 68.5V106H437.303Z" fill="white"/>
<path d="M413.985 107.3C411.985 107.3 410.452 106.8 409.385 105.8C408.385 104.733 407.885 103.3 407.885 101.5V100.2C407.885 98.4 408.385 97 409.385 96C410.452 94.9334 411.985 94.4 413.985 94.4C415.985 94.4 417.485 94.9334 418.485 96C419.552 97 420.085 98.4 420.085 100.2V101.5C420.085 103.3 419.552 104.733 418.485 105.8C417.485 106.8 415.985 107.3 413.985 107.3Z" fill="white"/>
<path d="M374.497 107.3C369.764 107.3 365.664 106.4 362.197 104.6C358.73 102.733 355.73 100.1 353.197 96.7L358.997 92C361.13 94.8 363.497 96.9333 366.097 98.4C368.697 99.8 371.664 100.5 374.997 100.5C378.73 100.5 381.63 99.7 383.697 98.1C385.764 96.5 386.797 94.2666 386.797 91.4C386.797 89 386.03 87.0666 384.497 85.6C382.964 84.0666 380.43 83.0666 376.897 82.6L372.597 82C361.064 80.4 355.297 75.2 355.297 66.4C355.297 61.2666 357.064 57.3666 360.597 54.7C364.197 51.9666 368.83 50.6 374.497 50.6C378.697 50.6 382.297 51.3666 385.297 52.9C388.364 54.3666 391.03 56.5 393.297 59.3L387.997 64.1C386.597 62.1666 384.697 60.5666 382.297 59.3C379.964 58.0333 377.197 57.4 373.997 57.4C370.464 57.4 367.73 58.1666 365.797 59.7C363.93 61.2333 362.997 63.3333 362.997 66C362.997 68.6 363.864 70.5333 365.597 71.8C367.33 73.0666 370.03 74.0333 373.697 74.7L377.897 75.3C383.63 76.1 387.83 77.8 390.497 80.4C393.164 82.9333 394.497 86.3 394.497 90.5C394.497 95.7 392.697 99.8 389.097 102.8C385.564 105.8 380.697 107.3 374.497 107.3Z" fill="white"/>
<path d="M333.178 106C330.445 106 328.345 105.233 326.878 103.7C325.411 102.1 324.678 100 324.678 97.4V58.9H315.578V51.9H320.778C322.511 51.9 323.711 51.5667 324.378 50.9C325.045 50.1667 325.378 48.9 325.378 47.1V36.8H332.678V51.9H344.578V58.9H332.678V99H343.778V106H333.178Z" fill="white"/>
<path d="M288.944 107.3C281.41 107.3 275.51 104.767 271.244 99.7C266.977 94.5667 264.844 87.6333 264.844 78.9C264.844 70.1667 266.977 63.3 271.244 58.3C275.51 53.2333 281.41 50.7 288.944 50.7C294.01 50.7 298.21 51.8333 301.544 54.1C304.877 56.3 307.377 59.3333 309.044 63.2L302.344 66.6C301.277 63.8 299.577 61.6333 297.244 60.1C294.977 58.5667 292.21 57.8 288.944 57.8C283.944 57.8 280.11 59.3333 277.444 62.4C274.777 65.4 273.444 69.4333 273.444 74.5V83.4C273.444 88.5334 274.777 92.6333 277.444 95.7C280.11 98.7 283.944 100.2 288.944 100.2C295.677 100.2 300.61 97.0333 303.744 90.7L309.544 94.5C307.744 98.5 305.077 101.633 301.544 103.9C298.077 106.167 293.877 107.3 288.944 107.3Z" fill="white"/>
<path d="M226.589 107.3C220.922 107.3 216.489 105.833 213.289 102.9C210.156 99.9666 208.589 95.9666 208.589 90.9C208.589 85.7666 210.489 81.8666 214.289 79.2C218.089 76.4666 223.822 75.1 231.489 75.1H242.389V69.7C242.389 65.7 241.289 62.6666 239.089 60.6C236.956 58.5333 233.722 57.5 229.389 57.5C223.322 57.5 218.656 60.2333 215.389 65.7L210.589 61.2C212.189 58.0666 214.622 55.5333 217.889 53.6C221.222 51.6 225.189 50.6 229.789 50.6C236.256 50.6 241.289 52.2 244.889 55.4C248.556 58.6 250.389 63.0666 250.389 68.8V99H256.589V106H252.289C246.756 106 243.622 103.067 242.889 97.2H242.389C241.256 100.467 239.289 102.967 236.489 104.7C233.756 106.433 230.456 107.3 226.589 107.3ZM227.989 100.5C232.122 100.5 235.556 99.5333 238.289 97.6C241.022 95.6 242.389 93.1333 242.389 90.2V81.1H231.089C226.356 81.1 222.822 81.8333 220.489 83.3C218.156 84.7 216.989 86.7666 216.989 89.5V91.7C216.989 94.5 217.956 96.6666 219.889 98.2C221.889 99.7333 224.589 100.5 227.989 100.5Z" fill="white"/>
<path d="M182 106V58.9H173V51.9H182V40.4C182 36.6667 182.967 33.7333 184.9 31.6C186.833 29.4 189.633 28.3 193.3 28.3H201.7V35.3H190V51.9H201.7V58.9H190V106H182Z" fill="white"/>
</svg>
